<?xml version="1.0" encoding="utf-8"?>
<!-- Generator: Adobe Illustrator 14.0.0, SVG Export Plug-In . SVG Version: 6.00 Build 43363)  -->
<!DOCTYPE svg PUBLIC "-//W3C//DTD SVG 1.1//EN" "http://www.w3.org/Graphics/SVG/1.1/DTD/svg11.dtd">
<svg version="1.1" id="Layer_1" xmlns="http://www.w3.org/2000/svg" xmlns:xlink="http://www.w3.org/1999/xlink" x="0px" y="0px"
	 width="16px" height="16px" viewBox="0 0 16 16" enable-background="new 0 0 16 16" xml:space="preserve">
<path fill="#F7901E" d="M12.463,15.537c-0.338,0.063-0.669,0.021-0.811-0.176c-0.457-0.642,0.754-1.134,1.239-1.062
	c0.241,0.039,0.631,0.259,0.583,0.556C13.425,15.176,12.933,15.454,12.463,15.537"/>
<path fill="#1A1617" d="M9.123,15.966C8.759,15.98,8.36,15.84,8.079,15.645c-0.137-0.093-0.313-0.209-0.39-0.358
	c-0.327-0.643,0.755,0.058,0.965-0.065c0.492-0.289-0.367-0.974-0.628-1.08c-0.154-0.063-0.314-0.174-0.47-0.261
	c-1.366-0.758-1.802-3.004-1.183-4.317c0.118-0.247,0.329-0.44,0.629-0.438c0.51,0.007,1,0.285,1.5,0.363
	c0.632,0.095,1.267,0.018,1.902,0.002c0.381-0.01,0.808,0.051,1.133,0.25c0.313,0.188,0.665,0.244,0.976,0.419
	c0.431,0.24,0.899,0.757,1.009,1.233c0.067,0.31,0.053,0.723,0.053,1.043c-0.003,0.55-0.07,0.888-0.512,1.273
	c-0.366,0.319-0.554,0.45-1.073,0.471c-0.235,0.012-0.429-0.014-0.644-0.108c-0.86-0.386-1.146-1.021-1.268-1.883
	c-0.061-0.443-0.175-0.692-0.639-0.713c-0.354-0.019-0.626,0.021-0.735,0.397c-0.074,0.254,0.014,0.541,0.183,0.75
	c0.338,0.414,0.834,0.599,1.135,1.039c0.39,0.567,0.328,1.378-0.202,1.875c-0.178,0.166-0.249,0.347-0.502,0.402
	C9.255,15.954,9.188,15.965,9.123,15.966"/>
<path fill="#F7901E" d="M8.139,8.906C8.041,8.877,7.94,8.836,7.841,8.779C7.41,8.535,6.989,8.057,6.875,7.578
	C6.713,6.893,6.816,6.055,6.912,5.363c0.074-0.537,0.226-1.348,0.671-1.731c0.392-0.339,0.679,0.26,1.01,0.421
	c0.48,0.234,1.151,0.315,1.667,0.153c0.277-0.086,0.564-0.165,0.825-0.292c0.129-0.063,0.253-0.22,0.381-0.264
	c0.168-0.058,0.455,0.011,0.634,0.03c0.513,0.051,1.423,0.408,1.579,0.939c0.049,0.165-0.002,0.396-0.018,0.56
	c-0.063,0.708-0.498,1.275-0.938,1.81c-0.155,0.192-0.271,0.445-0.448,0.618c-0.453,0.447-1.137,0.999-1.765,1.185
	c-0.579,0.172-0.404-0.115-0.151-0.393c0.131-0.145,0.258-0.296,0.373-0.452c0.35-0.47,0.562-0.891,0.562-1.476
	c-0.036-0.003-0.068-0.016-0.107-0.012c0.031-0.001-0.214-0.211-0.247-0.224c-0.153-0.064-0.353-0.065-0.513-0.044
	c-0.271,0.034-0.767,0.196-0.548,0.556c0.207-0.187,0.449-0.174,0.669-0.05C11.37,7.153,9.72,8.213,9.676,8.653
	C9.178,8.872,8.656,9.055,8.139,8.906"/>
<path fill="#F7901E" d="M5.634,7.13c-0.1-0.043-0.262-0.136-0.308-0.152C5.16,6.916,4.993,6.855,4.833,6.782
	C4.514,6.632,4.204,6.438,4.021,6.137C3.794,5.762,3.815,5.161,3.91,4.757c0.139-0.587,0.475-1.141,0.987-1.496
	C5.4,2.912,6.186,2.817,6.786,2.824c0.184,0,0.448,0.052,0.603,0.15C7.742,3.193,7.281,3.709,7.147,3.96
	C7.005,4.229,6.896,4.657,6.637,4.744c-0.3,0.103-0.711,0.049-0.918,0.335C5.549,5.314,5.465,5.627,5.512,5.911
	c0.024,0.157,0.156,0.356,0.019,0.494c0.032-0.026,0.084-0.033,0.118-0.056c0.043,0.23,0.544,0.775,0.057,0.807
	C5.695,7.157,5.667,7.146,5.634,7.13"/>
<path fill="#1A1617" d="M11.229,1.434c-0.438-0.652-1.278-0.635-1.278-0.635s-0.003,0.005-0.01,0.009
	c-0.022,0-0.048-0.002-0.068-0.006C9.82,0.794,9.774,0.681,9.637,0.68c-0.119,0-0.258,0.075-0.359,0.124
	C9.054,0.913,8.813,1.063,8.652,1.251C8.054,1.945,8.135,3.798,9.335,3.874c0.073,0.004,0.2,0.008,0.348,0.005
	c0.52-0.01,1.318-0.102,1.197-0.532c0.238-0.188,0.654-0.472,0.779-0.745C11.794,2.3,11.564,1.673,11.229,1.434"/>
</svg>
